inDegrees=yes
name=ik_S51_A03_T02
DataType=double
version=3
OpenSimVersion=4.3-2021-08-27-4bc7ad9
endheader
time	pelvis_tilt	pelvis_list	pelvis_rotation	pelvis_tx	pelvis_ty	pelvis_tz	hip_flexion_r	hip_adduction_r	hip_rotation_r	knee_angle_r	knee_angle_r_beta	ankle_angle_r	subtalar_angle_r	mtp_angle_r	hip_flexion_l	hip_adduction_l	hip_rotation_l	knee_angle_l	knee_angle_l_beta	ankle_angle_l	subtalar_angle_l	mtp_angle_l	lumbar_extension	lumbar_bending	lumbar_rotation	arm_flex_r	arm_add_r	arm_rot_r	elbow_flex_r	pro_sup_r	wrist_flex_r	wrist_dev_r	arm_flex_l	arm_add_l	arm_rot_l	elbow_flex_l	pro_sup_l	wrist_flex_l	wrist_dev_l
10.73999999999986	1.24339533410903	1.223198213214485	94.82630328570343	0	0.9399999999999999	0	-5.28363535613333	-1.471997834616056	-17.10586636334844	31.3664136135952	0.5474471920996086	0	0	0	17.37111459737388	2.200611844996898	-3.409599230378242	7.066510451336844	0.1233338740024185	0	0	0	0	0	0	29.77654500535527	-29.77654500535527	4.219143664210841	74.01744692960715	85.78085657288072	0	0	29.77654500535527	-29.77654500535527	4.219143664210841	74.01744692960715	85.78085657273543	0	0
10.75999999999986	0.7037251760981006	0.4331202642593117	94.52972948039765	0	0.9399999999999999	0	-4.595976397996113	-2.216157334616085	-16.62610324454407	33.77802079758172	0.5895376777249222	0	0	0	16.80203196715209	2.944648845759213	-2.864521321071262	6.480969566986998	0.1131142576654743	0	0	0	0	0	0	29.83989618453088	-29.83989618453088	4.224674908679703	74.09575709043881	85.7753253286953	0	0	29.83989618453088	-29.83989618453088	4.224674908679703	74.09575709043881	85.77532532855102	0	0
10.77999999999986	0.7012059020569649	0.4293622976307112	94.52668304515315	0	0.9399999999999999	0	-2.830378739193931	-5.368971404592982	-16.01632351601915	38.22703535894821	0.6671876302899387	0	0	0	15.79347362476006	2.94097626090528	-3.518886439952366	6.677981366742792	0.1165527622364927	0	0	0	0	0	0	29.95747468738216	-29.95747468738216	4.234894911682551	74.24041927065819	85.76510532621585	0	0	29.95747468738216	-29.95747468738216	4.234894911682551	74.24041927065819	85.7651053260734	0	0
10.79999999999986	-0.06062295009375876	-0.05924646916305917	94.92343411571584	0	0.9399999999999999	0	-1.205484671097206	-7.699742579902546	-15.63842593824615	40.90155422415224	0.7138667903944513	0	0	0	15.00843766886094	3.905449144531969	-3.125835482836728	5.529648191688079	0.09651056742190751	0	0	0	0	0	0	29.96388476900549	-29.96388476900549	4.235541983163741	74.24963467736904	85.76445825476858	0	0	29.96388476900549	-29.96388476900549	4.235541983163741	74.24963467736904	85.76445825462631	0	0
10.81999999999986	-0.2011825629817587	-0.242981185126671	95.15204627312903	0	0.9399999999999999	0	1.622518822450432	-10.75496397687317	-15.62863227500833	43.9214261805402	0.766573499022064	0	0	0	13.83307778214755	4.25307468834285	-2.866290759077092	4.815587242516992	0.08404785279895617	0	0	0	0	0	0	30.05548168212799	-30.05548168212799	4.243398172898263	74.36076694968725	85.75660206543543	0	0	30.05548168212799	-30.05548168212799	4.243398172898263	74.36076694968725	85.75660206529453	0	0
10.83999999999986	-0.1442610910242157	-0.2049217626172566	95.46036237358261	0	0.9399999999999999	0	2.58509906304273	-12.2903698146443	-16.91241222792743	44.05208800446592	0.7688539780562287	0	0	0	12.54314201077129	4.297063912316308	-3.738152720057742	4.180298641483576	0.07295997501053442	0	0	0	0	0	0	30.08568018257317	-30.08568018257317	4.245972750635781	74.39717419002702	85.75402748782925	0	0	30.08568018257317	-30.08568018257317	4.245972750635781	74.39717419002702	85.7540274876888	0	0
10.85999999999986	0.004237252701821966	-0.1964252009550226	95.62742128459422	0	0.9399999999999999	0	3.69716243718831	-13.40545724927314	-18.00664930964765	44.62721738136137	0.7788918793079977	0	0	0	11.18362524970335	4.18767952795644	-4.973233532887936	3.974210276314704	0.0693630544882852	0	0	0	0	0	0	30.14046304642299	-30.14046304642299	4.250676531877549	74.46371403814621	85.74932370682775	0	0	30.14046304642299	-30.14046304642299	4.250676531877549	74.46371403814621	85.74932370668816	0	0
10.87999999999986	0.4793746123125359	-0.1029072457950788	96.25503216191628	0	0.9399999999999999	0	4.665071922491794	-13.95017180370605	-19.3335889774169	43.77091882329257	0.7639466500896174	0	0	0	9.834213711041633	3.874560129643166	-4.453219360172622	3.333155159650606	0.05817453201574032	0	0	0	0	0	0	30.1520220597389	-30.1520220597389	4.251675018654517	74.47783706623501	85.74832522010172	0	0	30.1520220597389	-30.1520220597389	4.251675018654517	74.47783706623501	85.74832521996233	0	0
10.89999999999986	0.4680599566864754	-0.1027012327666874	96.25367950976249	0	0.9399999999999999	0	6.2063380918834	-14.65061305340467	-18.8504461808412	38.65367156506066	0.6746338367948181	0	0	0	7.764537563913719	4.008657551814573	-4.296500046366124	1.870725800774381	0.03265032462552043	0	0	0	0	0	0	30.19478257818242	-30.19478257818242	4.255331985200788	74.5295525776117	85.74466825374196	0	0	30.19478257818242	-30.19478257818242	4.255331985200788	74.5295525776117	85.74466825360327	0	0
10.91999999999986	0.6511278933605087	-0.06548789451137023	96.5093275802401	0	0.9399999999999999	0	7.916293620608734	-14.84912431817551	-17.19980490048645	35.93891382802782	0.6272523758896047	0	0	0	7.664266798049149	3.781024055232058	-4.166758780051244	2.173991462427627	0.03794330892960868	0	0	0	0	0	0	30.24154433552683	-30.24154433552683	4.2593685048609	74.58666830988663	85.74063173428829	0	0	30.24154433552683	-30.24154433552683	4.2593685048609	74.58666830988663	85.74063173415033	0	0
10.93999999999986	1.218711509943909	0.07822231018245052	97.48557456492703	0	0.9399999999999999	0	9.093969945607801	-14.95848531291248	-16.05955800308367	37.21807900114027	0.64957801983726	0	0	0	6.653954659991005	3.328235762910579	-3.110577578763162	1.834187452506784	0.03201261014501051	0	0	0	0	0	0	30.28045657745727	-30.28045657745727	4.262721610275304	74.63411047534251	85.73727862904529	0	0	30.28045657745727	-30.28045657745727	4.262721610275304	74.63411047534251	85.73727862890793	0	0
10.95999999999986	1.423517081841079	0.09466799484609349	98.03155327865997	0	0.9399999999999999	0	10.92336688641695	-14.37939946978512	-14.29005246245422	29.68674784780559	0.518131494153548	0	0	0	5.240405243023665	3.379636571528685	-1.804659275429088	0.87419802186611	0.015257633795985	0	0	0	0	0	0	30.34296830881354	-30.34296830881354	4.268044267365291	74.70937875207838	85.7319559722268	0	0	30.34296830881354	-30.34296830881354	4.268044267365291	74.70937875207838	85.73195597209047	0	0
10.97999999999985	1.54985828868168	0.1551677354215381	98.58725535221876	0	0.9399999999999999	0	12.26705359349796	-14.21877834825369	-12.75682866670246	26.37127252064131	0.4602655334258951	0	0	0	4.498651383035081	3.386301722372448	-0.8347357502220096	0.9087504516117262	0.01586068745961003	0	0	0	0	0	0	30.37478305481747	-30.37478305481747	4.270810614245754	74.74853016557719	85.72918962548786	0	0	30.37478305481747	-30.37478305481747	4.270810614245754	74.74853016557719	85.72918962535216	0	0
10.99999999999985	1.602735525392821	0.1746743844987179	99.13564130304368	0	0.9399999999999999	0	13.41211857811826	-13.97392369216709	-12.0119575716187	22.75257836220458	0.3971074057384888	0	0	0	3.762769923457558	3.347982223001568	-0.3155279200953952	1.801452299548995	0.03144127394475311	0	0	0	0	0	0	30.4171772983895	-30.4171772983895	4.274452208884201	74.80004338309391	85.72554803103546	0	0	30.4171772983895	-30.4171772983895	4.274452208884201	74.80004338309391	85.72554803090036	0	0
11.01999999999985	1.620883498835314	0.1875586928445966	99.67099818555323	0	0.9399999999999999	0	14.45551090860418	-13.74021510334125	-11.94179800280715	19.33094565523865	0.3373886492080071	0	0	0	3.039671903043339	3.340774531357207	0.2152823126299437	2.039024770820689	0.03558769578054383	0	0	0	0	0	0	30.42649348994902	-30.42649348994902	4.275330561517636	74.81250852042334	85.72466967844748	0	0	30.42649348994902	-30.42649348994902	4.275330561517636	74.81250852042334	85.72466967831257	0	0
11.03999999999985	1.566876924676671	0.1205106101440127	100.111921555789	0	0.9399999999999999	0	15.58294369040502	-13.55654380295722	-12.3236599098033	16.13705086735369	0.2816446691971287	0	0	0	2.350492790659043	3.475677615490171	0.7208206537952999	2.120364931955035	0.03700734940644089	0	0	0	0	0	0	30.41656070448933	-30.41656070448933	4.274588456930701	74.80206626807417	85.72541178299733	0	0	30.41656070448933	-30.41656070448933	4.274588456930701	74.80206626807417	85.72541178286225	0	0
11.05999999999985	1.432178754958007	0.07210378083826374	100.4970323533676	0	0.9399999999999999	0	16.5402774266193	-13.39350723919648	-13.26745963497641	13.1292412983877	0.2291484889456806	0	0	0	1.568106245749227	3.728658830068518	1.165458512970254	2.164500478783044	0.03777766001575777	0	0	0	0	0	0	30.39173315581565	-30.39173315581565	4.272601709924185	74.77403703040781	85.72739852990345	0	0	30.39173315581565	-30.39173315581565	4.272601709924185	74.77403703040781	85.72739852976802	0	0
11.07999999999985	1.318750460822218	0.04952720107476806	100.6867706838825	0	0.9399999999999999	0	17.27519794638413	-13.30589746337236	-14.50827240191862	12.04323184223749	0.2101940482280665	0	0	0	0.697517560523497	3.880345340787906	1.23502739513052	2.073916349850223	0.036196668715829	0	0	0	0	0	0	30.39646379145689	-30.39646379145689	4.273069834464557	74.78069373628986	85.72693040538755	0	0	30.39646379145689	-30.39646379145689	4.273069834464557	74.78069373628986	85.72693040525218	0	0
11.09999999999985	1.318252859008947	0.04350596501836299	100.6845984946625	0	0.9399999999999999	0	17.38636988354719	-13.05818646032118	-14.63566025467462	8.329066751691895	0.1453696384354126	0	0	0	0.6451578414571606	3.811132397492624	1.029042233522807	2.509442952545992	0.04379804191289537	0	0	0	0	0	0	30.40277878073603	-30.40277878073603	4.273690851090644	74.78952252530652	85.72630938879379	0	0	30.40277878073603	-30.40277878073603	4.273690851090644	74.78952252530652	85.72630938865859	0	0
11.11999999999985	1.331807030390213	0.04927574997455128	100.6906041794324	0	0.9399999999999999	0	18.03068778059187	-12.6705264875987	-16.67631544785836	5.956178071601178	0.1039549181845271	0	0	0	-0.3342744647996744	3.745741883122643	0.9091864613150171	2.011971430666632	0.03511552592119353	0	0	0	0	0	0	30.37832585354266	-30.37832585354266	4.271730068873884	74.76186037928773	85.7282701709115	0	0	30.37832585354266	-30.37832585354266	4.271730068873884	74.76186037928773	85.72827017077596	0	0
11.13999999999985	1.064623601913953	-0.0232596155845872	100.9589568447928	0	0.9399999999999999	0	18.7201404657559	-12.47218004577044	-19.32892135582349	4.075097603078359	0.07112387051384637	0	0	0	-1.230843728662935	4.001446195712688	0.8348429525867923	1.943970982348578	0.03392869420521125	0	0	0	0	0	0	30.37080611280529	-30.37080611280529	4.271192464675924	74.75431381922112	85.72880777508283	0	0	30.37080611280529	-30.37080611280529	4.271192464675924	74.75431381922112	85.72880777494721	0	0
11.15999999999985	1.079408409631877	-0.0193994676195278	100.9588952073447	0	0.9399999999999999	0	19.63916174213725	-11.6749137089089	-21.68986433504423	3.120395441212569	0.05446117441338049	0	0	0	-2.080232184962164	4.016988076775628	0.5828287492756241	2.011988113986674	0.03511581710005844	0	0	0	0	0	0	30.38140686725688	-30.38140686725688	4.272156749308541	74.76798313550654	85.72784349049986	0	0	30.38140686725688	-30.38140686725688	4.272156749308541	74.76798313550654	85.72784349036444	0	0
11.17999999999985	0.279464364277017	-0.124261922038861	102.5672752447725	0	0.9399999999999999	0	20.26470863435931	-12.18850416366219	-24.14013469651378	2.55979794351064	0.04467690230004049	0	0	0	-2.951679028682634	4.918155093085011	2.287484621550717	1.42834877846527	0.02492938905105804	0	0	0	0	0	0	30.38664420765031	-30.38664420765031	4.272673794133609	74.77533486211607	85.72732644570181	0	0	30.38664420765031	-30.38664420765031	4.272673794133609	74.77533486211607	85.72732644556645	0	0
11.19999999999985	0.2563509259658016	-0.2253421905865273	103.2100429118596	0	0.9399999999999999	0	21.4277494385759	-11.61217175246418	-21.92186811191675	1.887979659397801	0.03295146126717272	0	0	0	-3.554132130130389	5.040509770844075	3.045900955545691	1.79494929201027	0.03132777505192037	0	0	0	0	0	0	30.41523534465793	-30.41523534465793	4.275165628719556	74.81060398550369	85.72483461124345	0	0	30.41523534465793	-30.41523534465793	4.275165628719556	74.81060398550369	85.72483461110855	0	0
